<svg width="200" height="80" viewBox="0 0 200 80" fill="none" xmlns="http://www.w3.org/2000/svg">
<path d="M88.1088 12.2321C88.1088 15.1059 87.1673 17.3084 85.2851 18.8394C83.4024 20.3704 80.7231 21.136 77.2469 21.136H74.3855V31.4329H69.8865V3.91176H77.8115C81.2504 3.91176 83.8231 4.61452 85.5297 6.02005C87.2491 7.42562 88.1088 9.49629 88.1088 12.2321ZM74.3855 17.3523H76.7762C79.0854 17.3523 80.7796 16.9507 81.8591 16.1475C82.9381 15.3444 83.4778 14.0894 83.4778 12.3827C83.4778 10.8014 82.9946 9.62176 82.0283 8.84369C81.0619 8.06562 79.5562 7.67659 77.5104 7.67659H74.3855V17.3523ZM113.028 31.4329H97.4607V3.91176H113.028V7.71424H101.959V15.2063H112.332V18.9712H101.959V27.6115H113.028V31.4329ZM145.779 31.4329H140.263L126.729 9.50255H126.578L126.672 10.7262C126.848 13.0604 126.936 15.1937 126.936 17.1264V31.4329H122.851V3.91176H128.31L141.807 25.7291H141.92C141.895 25.4404 141.844 24.3926 141.769 22.5854C141.694 20.7658 141.656 19.3477 141.656 18.3312V3.91176H145.779V31.4329Z" fill="#7673D1"/>
<path d="M112.869 74.2686H97.3013V46.7475H112.869V50.55H101.8V58.042H112.173V61.8068H101.8V70.4472H112.869V74.2686ZM145.62 74.2686H140.104L126.57 52.3384H126.419L126.513 53.5618C126.689 55.8959 126.777 58.0296 126.777 59.9623V74.2686H122.692V46.7475H128.151L141.648 68.565H141.761C141.736 68.2763 141.686 67.2281 141.61 65.4213C141.535 63.6016 141.497 62.1833 141.497 61.1668V46.7475H145.62V74.2686ZM172.309 74.2686H156.741V46.7475H172.309V50.55H161.24V58.042H171.612V61.8068H161.24V70.4472H172.309V74.2686ZM198 66.7955C198 69.2427 197.115 71.1626 195.346 72.5556C193.576 73.9486 191.136 74.6451 188.023 74.6451C184.911 74.6451 182.364 74.1619 180.381 73.1955V68.9411C181.635 69.5309 182.966 69.9953 184.371 70.3341C185.79 70.6729 187.107 70.8426 188.325 70.8426C190.107 70.8426 191.418 70.5037 192.259 69.8261C193.112 69.1484 193.539 68.2386 193.539 67.0966C193.539 66.0673 193.15 65.1951 192.372 64.4798C191.593 63.7648 189.987 62.9175 187.553 61.9387C185.043 60.9222 183.273 59.7614 182.244 58.4562C181.215 57.151 180.701 55.5824 180.701 53.7503C180.701 51.4534 181.516 49.6466 183.148 48.3286C184.779 47.0109 186.969 46.3521 189.718 46.3521C192.353 46.3521 194.976 46.9295 197.586 48.084L196.155 51.7546C193.708 50.7256 191.525 50.2112 189.605 50.2112C188.149 50.2112 187.044 50.5312 186.291 51.1711C185.539 51.7987 185.162 52.6331 185.162 53.6749C185.162 54.3902 185.312 55.0049 185.614 55.5194C185.915 56.0214 186.411 56.4986 187.101 56.9501C187.791 57.402 189.034 57.9983 190.828 58.7385C192.849 59.5794 194.329 60.3637 195.271 61.0915C196.212 61.8197 196.902 62.6413 197.341 63.5575C197.781 64.4738 198 65.5528 198 66.7955Z" fill="#7673D1"/>
<path fill-rule="evenodd" clip-rule="evenodd" d="M45.2341 1.44785C35.9392 1.44785 28.3629 9.02561 28.3629 18.3205C28.3629 19.746 28.5428 21.1303 28.8781 22.4539L19.2357 27.1549C17.4373 25.0281 14.7546 23.6691 11.774 23.6691C6.40437 23.6691 2 28.0765 2 33.4462C2.00001 38.816 6.40437 43.2204 11.774 43.2204C17.1437 43.2204 21.5511 38.816 21.5512 33.4462C21.5512 32.8314 21.4903 32.2302 21.38 31.6458L30.8063 27.0506C33.7691 31.9258 39.1309 35.1933 45.2341 35.1933C47.348 35.1933 49.3716 34.7974 51.2392 34.0823L57.8921 48.1709C53.7785 51.2525 51.1099 56.1641 51.1099 61.6809C51.1099 70.9758 58.6854 78.5522 67.9803 78.5522C77.2752 78.5522 84.8529 70.9758 84.8529 61.6809C84.8529 60.8649 84.7946 60.0617 84.6819 59.2761H83.3879H80.7081H66.2536V63.5597H80.795C79.8903 69.8368 74.5166 74.628 67.9803 74.628C60.8062 74.628 55.0319 68.8554 55.0319 61.6809C55.0319 54.5067 60.8062 48.7325 67.9803 48.7325C71.4136 48.7325 74.526 50.0544 76.8383 52.2197L80.1499 50.012C77.076 46.8075 72.7548 44.8083 67.9803 44.8083C65.9799 44.8083 64.06 45.1613 62.2771 45.8051L55.5828 31.6275C59.5476 28.5358 62.1067 23.7196 62.1067 18.3205C62.1067 9.02561 54.529 1.44785 45.2341 1.44785ZM45.2341 5.37194C52.4086 5.37194 58.1829 11.1462 58.1829 18.3205C58.1829 25.4949 52.4086 31.2692 45.2341 31.2692C38.0598 31.2692 32.2878 25.4949 32.2878 18.3205C32.2878 11.1462 38.0598 5.37194 45.2341 5.37194Z" fill="#7673D1"/>
<path d="M11.8051 43.187C17.2203 43.187 21.6102 38.7971 21.6102 33.3819C21.6102 27.9667 17.2203 23.5768 11.8051 23.5768C6.38989 23.5768 2 27.9667 2 33.3819C2 38.7971 6.38989 43.187 11.8051 43.187Z" fill="#FE6231" fill-opacity="0.983806"/>
</svg>
