<?xml version="1.0" encoding="UTF-8" standalone="no"?>
<!DOCTYPE svg PUBLIC "-//W3C//DTD SVG 1.1//EN" "http://www.w3.org/Graphics/SVG/1.1/DTD/svg11.dtd">
<svg width="100%" height="100%" viewBox="0 0 500 500" version="1.1" xmlns="http://www.w3.org/2000/svg" xmlns:xlink="http://www.w3.org/1999/xlink" xml:space="preserve" xmlns:serif="http://www.serif.com/" style="fill-rule:evenodd;clip-rule:evenodd;stroke-linejoin:round;stroke-miterlimit:2;">
    <g id="logo" transform="matrix(18.5438,0,0,18.5438,43.2756,30.922)">
        <g id="path837" transform="matrix(1,0,0,1,0.862821,0.539263)">
            <path d="M10.493,2C8.323,2 6.554,3.769 6.554,5.939C6.554,6.272 6.596,6.595 6.675,6.904L4.424,8.001C4.004,7.505 3.378,7.188 2.682,7.188C1.428,7.188 0.4,8.216 0.4,9.47C0.4,10.724 1.428,11.752 2.682,11.752C3.935,11.752 4.964,10.724 4.964,9.47C4.964,9.326 4.95,9.186 4.924,9.05L7.125,7.977C7.817,9.115 9.068,9.878 10.493,9.878C10.987,9.878 11.459,9.785 11.895,9.619L13.448,12.907C12.488,13.627 11.865,14.773 11.865,16.061C11.865,18.231 13.633,20 15.803,20C17.973,20 19.742,18.231 19.742,16.061C19.742,15.871 19.728,15.683 19.702,15.5L15.4,15.5L15.4,16.5L18.795,16.5C18.583,17.965 17.329,19.084 15.803,19.084C14.128,19.084 12.78,17.736 12.78,16.061C12.78,14.387 14.128,13.039 15.803,13.039C16.605,13.039 17.331,13.347 17.871,13.853L18.644,13.337C17.926,12.589 16.918,12.122 15.803,12.122C15.336,12.122 14.888,12.205 14.472,12.355L12.909,9.045C13.835,8.324 14.432,7.199 14.432,5.939C14.432,3.769 12.663,2 10.493,2ZM10.493,2.916C12.168,2.916 13.516,4.264 13.516,5.939C13.516,7.614 12.168,8.962 10.493,8.962C8.818,8.962 7.471,7.614 7.471,5.939C7.471,4.264 8.818,2.916 10.493,2.916Z" style="fill:rgb(118,115,209);"/>
        </g>
        <g id="path841" transform="matrix(1,0,0,1,0.862821,0.539263)">
            <circle cx="2.689" cy="9.455" r="2.289" style="fill:rgb(254,98,49);fill-opacity:0.98;"/>
        </g>
    </g>
</svg>
