<svg width="24" height="24" viewBox="0 0 24 24" fill="none" xmlns="http://www.w3.org/2000/svg">
<path d="M21.0274 13.3037C23.7759 14.6739 24.2085 18.2063 21.3115 20.0413C17.2086 22.1457 11.1702 17.8786 7.67316 19.9689C6.44936 20.7004 5.24837 22.1835 5.24837 22.1835" stroke="#838689" stroke-width="0.999999" stroke-linecap="round" stroke-linejoin="round"/>
<path d="M11.3184 15.6172C8.5752 15.6308 8.13776 17.3747 8.38672 17.5117H12.457H14.4648C14.5233 17.5046 14.58 17.4968 14.6348 17.4883C14.574 17.4823 14.513 17.4761 14.4512 17.4688C13.4034 17.3447 12.5508 16.5256 11.7168 15.625C11.5831 15.6187 11.437 15.6195 11.3184 15.6172V15.6172Z" stroke="#838689" stroke-width="0.999999" stroke-linecap="round" stroke-linejoin="round"/>
<path d="M10.6445 5.25391C10.6302 5.26099 10.5876 5.28489 10.5332 5.31836C10.8275 5.81679 10.9952 6.3698 10.9609 6.89453C10.9056 7.74139 10.1974 10.2617 7.52344 10.2676C7.50404 10.5353 7.50881 10.772 7.54283 10.9258C7.78653 12.0251 8.24048 12.5342 9.59165 13.5684C11.2706 14.7043 12.5691 17.2422 14.4823 17.4687C18.9029 17.9922 21.3126 14.495 21.2909 10.8203C21.2734 7.85049 19.7447 4.32025 15.371 4.22461C13.7589 4.18936 11.8969 4.6437 10.6444 5.2539L10.6445 5.25391Z" stroke="#838689" stroke-width="0.999999" stroke-linecap="round" stroke-linejoin="round"/>
<path d="M7.79297 3.60547C6.19475 3.60294 4.55846 4.82611 3.26953 5.83399C2.55455 6.39308 1.68706 7.13538 1.67969 8.04297C1.673 8.86843 2.66464 9.8482 3.09375 10.0762C4.34304 10.7399 4.73207 9.80848 7.16016 10.2539C10.1344 10.4867 10.9032 7.77857 10.9609 6.89453C10.9987 6.31653 10.7911 5.70377 10.4395 5.16797C9.60332 5.86944 8.72274 6.04151 8.21289 5.47852L7.88672 5.11914C7.49035 4.68145 7.47471 4.16637 7.84766 3.60742C7.82959 3.60708 7.81107 3.6055 7.79297 3.60547Z" stroke="#838689" stroke-width="0.999999"/>
<path d="M8.37973 3.00798C9.25083 2.21911 10.4204 1.76126 11.032 2.27135L11.1916 2.40443C11.8031 2.91452 11.4313 4.27303 10.5602 5.06189C9.68909 5.85076 8.74655 6.0681 8.21198 5.4778L7.88725 5.11923C7.35269 4.52893 7.50865 3.79683 8.37975 3.00797L8.37973 3.00798Z" stroke="#838689" stroke-width="0.999999" stroke-linecap="round" stroke-linejoin="round"/>
<path d="M5.85998 8.15512C6.41227 8.15512 6.85999 7.70741 6.85999 7.15512C6.85999 6.60284 6.41227 6.15512 5.85998 6.15512C5.3077 6.15512 4.85999 6.60284 4.85999 7.15512C4.85999 7.70741 5.3077 8.15512 5.85998 8.15512Z" fill="#838689"/>
<path d="M2.375 6.59375L1.03125 7.9375" stroke="#838689" stroke-width="0.999999" stroke-linecap="round" stroke-linejoin="round"/>
<path d="M9.70293 13.6396C5.39755 14.5943 5.66559 10.927 7.8125 11.8125" stroke="#838689" stroke-width="0.999999" stroke-linecap="round" stroke-linejoin="round"/>
<path d="M8.37973 3.00798C9.25083 2.21911 10.4204 1.76126 11.032 2.27135L11.1916 2.40443C11.8031 2.91452 11.4313 4.27303 10.5602 5.06189C9.68909 5.85076 8.74655 6.0681 8.21198 5.4778L7.88725 5.11923C7.35269 4.52893 7.50865 3.79683 8.37975 3.00797L8.37973 3.00798Z" stroke="#838689" stroke-width="0.999999" stroke-linecap="round" stroke-linejoin="round"/>
<path d="M5.85998 8.15512C6.41227 8.15512 6.85999 7.70741 6.85999 7.15512C6.85999 6.60284 6.41227 6.15512 5.85998 6.15512C5.3077 6.15512 4.85999 6.60284 4.85999 7.15512C4.85999 7.70741 5.3077 8.15512 5.85998 8.15512Z" fill="#838689"/>
<path d="M2.375 6.59375L1.03125 7.9375" stroke="#838689" stroke-width="0.999999" stroke-linecap="round" stroke-linejoin="round"/>
<path d="M9.34375 4.09375L8.3125 5.125" stroke="#838689" stroke-width="0.999999" stroke-linecap="round" stroke-linejoin="round"/>
</svg>
