<svg width="400" height="400" viewBox="0 0 400 400" fill="none" xmlns="http://www.w3.org/2000/svg">
<path d="M197.565 166.888C196.846 175.151 199.889 184.685 205.993 190.3C215.746 199.271 231.934 196.078 244.39 200.601C253.447 203.891 262.05 208.352 270.611 212.776C277.319 216.242 282.98 222.076 290.278 224.014C296.312 225.616 302.976 225.626 309.008 224.014C320.491 220.944 332.859 215.789 339.912 206.22C345.798 198.235 345.368 187.049 346.467 177.189C347.643 166.641 348.759 155.711 346.467 145.348C343.27 130.894 336.997 116.629 327.737 105.079C322.366 98.3787 316.162 92.0279 309.28 86.632C295.754 76.1525 284.13 71.8397 267.976 73.4301C248.752 75.4333 234.363 86.184 225.66 104.143C223.288 109.14 222.807 114.843 220.977 120.063C218.522 127.065 215.801 133.997 212.549 140.666C208.136 149.714 198.438 156.859 197.565 166.888Z" fill="url(#paint0_linear_3_258)"/>
<path d="M206.375 236.282C208.152 221.957 213.105 207.142 222.295 196.012C227.479 189.736 237.281 188.793 242.898 182.901C249.845 175.616 258.358 166.735 257.882 156.68C257.088 139.897 244.007 122.726 228.851 115.474C201.651 105.469 187.526 129.433 175.471 147.315C138.764 189.595 122.014 234.365 120.218 284.043C119.331 305.876 121.077 335.734 135.202 352.407C143.793 362.549 161.628 362.139 174.534 358.962C188.599 355.501 202.396 345.536 209.185 332.74C217.535 317 212.681 297.165 211.994 279.36C211.436 264.89 204.593 250.653 206.375 236.282Z" fill="url(#paint1_radial_3_258)"/>
<path d="M271.129 205.007C290.158 189.451 316.696 180.801 333.372 163.396C350.624 147.589 341.225 124.085 320.766 124.471C303.08 125.185 294.93 142.591 278.986 149.149C252.582 160.011 219.036 163.947 195.491 178.832C176.112 205.745 230.065 238.738 271.129 205.007Z" fill="url(#paint2_linear_3_258)"/>
<path d="M47.0442 153.616C50.3648 134.356 58.2083 113.633 73.266 101.172C84.7623 91.6592 101.814 85.6021 116.345 88.998C129.043 91.9655 139.045 103.819 145.376 115.22C151.381 126.033 148.251 139.934 151.931 151.743C155.298 162.546 159.905 173.1 165.979 182.647C175.012 196.845 186.614 209.392 198.756 221.044C221.375 242.749 252.917 254.819 272.739 279.106C293.245 301.163 282.073 333.961 257.755 333.423C236.734 332.426 217.707 320.099 198.756 310.947C167.372 295.791 136.839 278.338 108.853 257.567C88.8042 242.687 65.0383 229.189 53.5996 206.996C45.3865 191.061 43.9984 171.282 47.0442 153.616Z" fill="url(#paint3_radial_3_258)"/>
<path d="M19.2538 266.639C203.765 267.381 103.613 359.996 316.239 361.594" stroke="#85EAC5" stroke-width="10" stroke-linecap="round" stroke-linejoin="round"/>
<path d="M183.234 143.728C187.928 137.551 186.727 128.738 180.55 124.044C174.373 119.349 165.56 120.551 160.866 126.728L53.2014 268.392C48.507 274.569 49.7088 283.381 55.8855 288.076C62.0623 292.77 70.875 291.568 75.5694 285.392L183.234 143.728Z" fill="url(#paint4_linear_3_258)"/>
<path d="M178.227 97.5526C192.505 97.5526 204.08 85.9778 204.08 71.6995C204.08 57.4212 192.505 45.8464 178.227 45.8464C163.948 45.8464 152.373 57.4212 152.373 71.6995C152.373 85.9778 163.948 97.5526 178.227 97.5526Z" fill="#1C3CC5"/>
<path d="M111.833 101.266C112.45 98.4892 110.699 95.7381 107.922 95.1214C105.145 94.5047 102.394 96.256 101.777 99.033L79.8503 197.769C79.2336 200.546 80.9849 203.297 83.7619 203.914C86.5389 204.53 89.29 202.779 89.9067 200.002L111.833 101.266Z" fill="#009CFD"/>
<path d="M339.978 179.298C339.153 176.576 336.278 175.037 333.555 175.862C330.833 176.686 329.294 179.561 330.119 182.284L359.434 279.084C360.258 281.806 363.134 283.345 365.857 282.52C368.579 281.696 370.118 278.82 369.293 276.098L339.978 179.298Z" fill="#FF4E1A"/>
<path d="M170.637 81.1174C173.415 75.9222 173.755 70.2885 174.675 64.9234C176.166 54.007 184.411 48.0109 193.77 44.4015C215.765 36.1042 235.163 51.1933 237.052 73.6976C225.585 60.263 214.159 49.4486 196.52 53.8641C176.311 60.9067 187.628 83.4774 171.715 92.3099C165.977 95.2118 161.292 95.4636 156.039 93.1783C147.839 89.2915 145.805 84.191 144.103 76.9237C142.878 72.1692 141.918 67.7009 139.953 62.6393C138.401 58.7188 135.471 57.1245 135.471 57.1245C135.471 57.1245 136.614 57.4167 137.944 57.8404C140.733 58.5153 142.826 60.2843 144.508 62.24C148.998 67.4926 150.533 73.8802 153.047 78.7819C156.642 85.0002 167.283 86.9061 170.637 81.1174V81.1174Z" stroke="black" stroke-width="3" stroke-linecap="round" stroke-linejoin="round"/>
<path d="M97.4114 61.8455C98.0281 59.0685 96.3017 56.3229 93.5555 55.713C90.8092 55.1032 88.083 56.86 87.4663 59.637L58.5802 189.712C57.9635 192.489 59.6898 195.235 62.4361 195.845C65.1823 196.455 67.9085 194.698 68.5252 191.921L97.4114 61.8455Z" fill="#009CFD"/>
<path d="M81.8213 41.6504C82.6884 37.9417 81.1791 34.1468 78.4502 33.1742C75.7213 32.2016 72.8061 34.4196 71.939 38.1283L38.4782 181.244C37.6111 184.953 39.1204 188.748 41.8493 189.72C44.5782 190.693 47.4934 188.475 48.3605 184.766L81.8213 41.6504Z" fill="#FF4E1A"/>
<path d="M52.2952 78.0327C52.9119 75.2556 51.1606 72.5045 48.3836 71.8878C45.6066 71.2711 42.8555 73.0224 42.2388 75.7994L20.3122 174.535C19.6955 177.312 21.4468 180.063 24.2238 180.68C27.0008 181.297 29.752 179.546 30.3687 176.769L52.2952 78.0327Z" fill="#009CFD"/>
<path d="M60.6092 225.325H111.117C164.366 225.325 215.17 205.114 253.548 166.736C276.032 144.252 313.321 70.7714 348.503 70.7714" stroke="#FF4E1A" stroke-width="10" stroke-linecap="round" stroke-linejoin="round"/>
<path d="M325.693 287.016H313.571C307.155 287.016 301.954 292.217 301.954 298.633C301.954 305.049 307.155 310.25 313.571 310.25H325.693C332.109 310.25 337.31 305.049 337.31 298.633C337.31 292.217 332.109 287.016 325.693 287.016Z" fill="#FF4E1A"/>
<path d="M325.693 312.393H313.571C307.155 312.393 301.954 317.594 301.954 324.009C301.954 330.425 307.155 335.626 313.571 335.626H325.693C332.109 335.626 337.31 330.425 337.31 324.009C337.31 317.594 332.109 312.393 325.693 312.393Z" fill="#85EAC5"/>
<path d="M363.069 312.393H350.947C344.531 312.393 339.33 317.594 339.33 324.009C339.33 330.425 344.531 335.626 350.947 335.626H363.069C369.484 335.626 374.685 330.425 374.685 324.009C374.685 317.594 369.484 312.393 363.069 312.393Z" fill="#008CFA"/>
<path d="M363.069 338.106H350.947C344.531 338.106 339.33 343.307 339.33 349.723C339.33 356.138 344.531 361.339 350.947 361.339H363.069C369.484 361.339 374.685 356.138 374.685 349.723C374.685 343.307 369.484 338.106 363.069 338.106Z" fill="#FF4E1A"/>
<defs>
<linearGradient id="paint0_linear_3_258" x1="265.661" y1="154.133" x2="311.441" y2="118.546" gradientUnits="userSpaceOnUse">
<stop stop-color="#4DDA98"/>
<stop offset="1" stop-color="#ABF5E4"/>
</linearGradient>
<radialGradient id="paint1_radial_3_258" cx="0" cy="0" r="1" gradientUnits="userSpaceOnUse" gradientTransform="translate(188.964 237.037) rotate(24.621) scale(79.474 123.921)">
<stop stop-color="#0084F9"/>
<stop offset="0.20157" stop-color="#009AFC"/>
<stop offset="1" stop-color="#0084F9"/>
</radialGradient>
<linearGradient id="paint2_linear_3_258" x1="264.995" y1="136.891" x2="330.942" y2="197.605" gradientUnits="userSpaceOnUse">
<stop stop-color="#747DDF"/>
<stop offset="0.590868" stop-color="#ADB2EC"/>
<stop offset="0.673725" stop-color="#A9AEEB"/>
<stop offset="1" stop-color="#747DDF"/>
</linearGradient>
<radialGradient id="paint3_radial_3_258" cx="0" cy="0" r="1" gradientUnits="userSpaceOnUse" gradientTransform="translate(164.497 210.737) rotate(20.0035) scale(131.039 78.7071)">
<stop stop-color="#7673D1"/>
<stop offset="1" stop-color="#4440C0"/>
</radialGradient>
<linearGradient id="paint4_linear_3_258" x1="154.777" y1="210.03" x2="122.01" y2="183.377" gradientUnits="userSpaceOnUse">
<stop stop-color="#747DDF"/>
<stop offset="0.441598" stop-color="#ADB2EC"/>
<stop offset="0.567932" stop-color="#A9AEEB"/>
<stop offset="1" stop-color="#747DDF"/>
</linearGradient>
</defs>
</svg>
