<svg width="1200" height="630" viewBox="0 0 1200 630" fill="none" xmlns="http://www.w3.org/2000/svg">
<g clip-path="url(#clip0_2_45)">
<rect width="1200" height="630" fill="white"/>
<path d="M457.168 499.586C461.774 497.054 463.33 491.202 460.643 486.516C457.956 481.829 452.043 480.082 447.437 482.613L231.681 601.196C227.075 603.728 225.519 609.579 228.206 614.266C230.893 618.953 236.806 620.7 241.412 618.168L457.168 499.586Z" fill="#009CFD"/>
<path d="M274.847 334.372C281.055 331.054 284.33 324.223 282.164 319.115C279.997 314.007 273.209 312.556 267.001 315.875L27.4604 443.939C21.253 447.258 17.9772 454.089 20.1438 459.197C22.3103 464.305 29.0987 465.756 35.3062 462.437L274.847 334.372Z" fill="#FF4E1A"/>
<path d="M238.294 441.776C242.901 439.244 244.432 433.35 241.715 428.611C238.998 423.871 233.061 422.082 228.455 424.613L64.6813 514.626C60.0751 517.157 58.5437 523.051 61.2609 527.791C63.978 532.53 69.9148 534.32 74.5211 531.788L238.294 441.776Z" fill="#009CFD"/>
<path d="M219.981 226.709C254.765 226.709 282.962 199.687 282.962 166.354C282.962 133.022 254.765 106 219.981 106C185.198 106 157 133.022 157 166.354C157 199.687 185.198 226.709 219.981 226.709Z" fill="#1C3CC5"/>
<path d="M946.776 179.694C945.584 192.822 950.629 207.968 960.749 216.888C976.917 231.141 1003.75 226.067 1024.4 233.254C1039.42 238.48 1053.68 245.567 1067.87 252.595C1078.99 258.101 1088.38 267.369 1100.47 270.448C1110.48 272.994 1121.53 273.009 1131.53 270.448C1150.56 265.571 1171.07 257.381 1182.76 242.18C1192.52 229.494 1191.8 211.723 1193.63 196.06C1195.58 179.302 1197.43 161.939 1193.63 145.476C1188.33 122.513 1177.93 99.8515 1162.58 81.5021C1153.67 70.8574 1143.39 60.7683 1131.98 52.196C1109.55 35.5478 1090.28 28.6962 1063.5 31.2228C1031.63 34.4053 1007.78 51.4844 993.351 80.0143C989.42 87.9536 988.623 97.0134 985.589 105.306C981.519 116.43 977.008 127.442 971.616 138.037C964.301 152.412 948.223 163.762 946.776 179.694Z" fill="url(#paint0_linear_2_45)"/>
<path d="M1029.13 530.95C1060.68 506.238 1104.68 492.496 1132.32 464.846C1160.92 439.734 1145.34 402.394 1111.42 403.007C1082.1 404.142 1068.59 431.793 1042.16 442.212C998.387 459.468 942.776 465.72 903.743 489.369C871.617 532.124 961.059 584.538 1029.13 530.95Z" fill="url(#paint1_linear_2_45)"/>
<path d="M208.637 50.8346C213.143 39.8179 207.139 27.3928 195.227 23.0823C183.316 18.7718 170.007 24.2083 165.501 35.225L62.1586 287.893C57.6527 298.91 63.6563 311.335 75.5681 315.646C87.4799 319.956 100.789 314.52 105.295 303.503L208.637 50.8346Z" fill="url(#paint2_linear_2_45)"/>
<path d="M1046.54 389.212C1044.76 383.572 1038.54 380.384 1032.66 382.092C1026.77 383.8 1023.45 389.757 1025.23 395.398L1088.6 595.94C1090.39 601.58 1096.6 604.768 1102.49 603.06C1108.37 601.351 1111.7 595.394 1109.92 589.754L1046.54 389.212Z" fill="#FF4E1A"/>
<path d="M711 251.531H794.731C883.007 251.531 967.23 219.424 1030.85 158.454C1068.13 122.736 1129.94 6 1188.27 6" stroke="#FF4E1A" stroke-width="10" stroke-linecap="round" stroke-linejoin="round"/>
<path d="M737.893 493H714.458C702.055 493 692 502.341 692 513.863C692 525.386 702.055 534.727 714.458 534.727H737.893C750.296 534.727 760.351 525.386 760.351 513.863C760.351 502.341 750.296 493 737.893 493Z" fill="#FF4E1A"/>
<path d="M737.893 538.575H714.458C702.055 538.575 692 547.916 692 559.439C692 570.962 702.055 580.302 714.458 580.302H737.893C750.296 580.302 760.351 570.962 760.351 559.439C760.351 547.916 750.296 538.575 737.893 538.575Z" fill="#85EAC5"/>
<path d="M810.15 538.575H786.716C774.312 538.575 764.257 547.916 764.257 559.439C764.257 570.962 774.312 580.302 786.716 580.302H810.15C822.554 580.302 832.609 570.962 832.609 559.439C832.609 547.916 822.554 538.575 810.15 538.575Z" fill="#008CFA"/>
<path d="M810.15 584.756H786.716C774.312 584.756 764.257 594.097 764.257 605.62C764.257 617.142 774.312 626.483 786.716 626.483H810.15C822.554 626.483 832.609 617.142 832.609 605.62C832.609 594.097 822.554 584.756 810.15 584.756Z" fill="#FF4E1A"/>
<path fill-rule="evenodd" clip-rule="evenodd" d="M566.2 193C536.702 193 512.655 216.947 512.655 246.322C512.655 250.83 513.226 255.202 514.3 259.385L483.701 274.235C477.991 267.521 469.482 263.23 460.021 263.23C442.974 263.23 429 277.146 429 294.121C429 311.096 442.974 325.012 460.021 325.012C477.053 325.012 491.041 311.096 491.041 294.121C491.041 292.172 490.851 290.277 490.498 288.436L520.417 273.91C529.824 289.315 546.829 299.644 566.2 299.644C572.916 299.644 579.332 298.385 585.259 296.138L606.369 340.648C593.32 350.394 584.851 365.908 584.851 383.343C584.851 412.718 608.884 436.665 638.382 436.665C667.881 436.665 691.928 412.718 691.928 383.343C691.928 380.771 691.737 378.226 691.384 375.749H632.904V389.286H679.055C676.173 409.118 659.126 424.265 638.382 424.265C615.613 424.265 597.289 406.018 597.289 383.343C597.289 360.682 615.613 342.435 638.382 342.435C649.285 342.435 659.154 346.604 666.494 353.454L677.002 346.469C667.242 336.343 653.539 330.021 638.382 330.021C632.034 330.021 625.944 331.145 620.289 333.175L599.043 288.368C611.63 278.608 619.746 263.379 619.746 246.322C619.746 216.947 595.699 193 566.2 193ZM566.2 205.4C588.97 205.4 607.294 223.648 607.294 246.322C607.294 268.996 588.97 287.244 566.2 287.244C543.431 287.244 525.12 268.996 525.12 246.322C525.12 223.648 543.431 205.4 566.2 205.4Z" fill="#7673D1"/>
<path d="M460.116 324.904C477.301 324.904 491.232 311.031 491.232 293.918C491.232 276.805 477.301 262.932 460.116 262.932C442.931 262.932 429 276.805 429 293.918C429 311.031 442.931 324.904 460.116 324.904Z" fill="#FE6231" fill-opacity="0.98"/>
<path d="M247.5 567C215.5 394.5 129.5 350 23 336" stroke="#85EAC5" stroke-width="10" stroke-linecap="round"/>
<path d="M346.294 472.776C350.9 470.244 352.432 464.35 349.715 459.611C346.997 454.871 341.061 453.082 336.454 455.613L172.681 545.626C168.075 548.157 166.544 554.051 169.261 558.791C171.978 563.53 177.915 565.32 182.521 562.788L346.294 472.776Z" fill="#009CFD"/>
<path d="M308.495 13.0567C464.435 314.887 701.915 -66.5691 883.248 280.463" stroke="#85EAC5" stroke-width="10" stroke-linecap="round" stroke-linejoin="round"/>
<circle cx="312.455" cy="24.9711" r="17.5" transform="rotate(66.9889 312.455 24.9711)" fill="white" stroke="#85EAC5" stroke-width="10"/>
<circle cx="422.938" cy="129.065" r="17.5" transform="rotate(66.9889 422.938 129.065)" fill="white" stroke="#85EAC5" stroke-width="10"/>
<circle cx="882.5" cy="285.5" r="17.5" fill="white" stroke="#85EAC5" stroke-width="10"/>
<circle cx="38.5" cy="340.5" r="17.5" fill="white" stroke="#85EAC5" stroke-width="10"/>
<circle cx="726.5" cy="128.5" r="17.5" fill="white" stroke="#85EAC5" stroke-width="10"/>
</g>
<defs>
<linearGradient id="paint0_linear_2_45" x1="1059.67" y1="159.432" x2="1133.1" y2="99.8639" gradientUnits="userSpaceOnUse">
<stop stop-color="#4DDA98"/>
<stop offset="1" stop-color="#ABF5E4"/>
</linearGradient>
<linearGradient id="paint1_linear_2_45" x1="1018.97" y1="422.738" x2="1124.01" y2="523.653" gradientUnits="userSpaceOnUse">
<stop stop-color="#747DDF"/>
<stop offset="0.590868" stop-color="#ADB2EC"/>
<stop offset="0.673725" stop-color="#A9AEEB"/>
<stop offset="1" stop-color="#747DDF"/>
</linearGradient>
<linearGradient id="paint2_linear_2_45" x1="195.913" y1="172.058" x2="127.745" y2="138.608" gradientUnits="userSpaceOnUse">
<stop stop-color="#747DDF"/>
<stop offset="0.407739" stop-color="#A9AEEB"/>
<stop offset="0.543164" stop-color="#ADB2EC"/>
<stop offset="0.954647" stop-color="#747DDF"/>
</linearGradient>
<clipPath id="clip0_2_45">
<rect width="1200" height="630" fill="white"/>
</clipPath>
</defs>
</svg>
