<?xml version="1.0" encoding="UTF-8" standalone="no"?>
<svg
   xmlns:dc="http://purl.org/dc/elements/1.1/"
   xmlns:cc="http://creativecommons.org/ns#"
   xmlns:rdf="http://www.w3.org/1999/02/22-rdf-syntax-ns#"
   xmlns:svg="http://www.w3.org/2000/svg"
   xmlns="http://www.w3.org/2000/svg"
   xmlns:xlink="http://www.w3.org/1999/xlink"
   width="94mm"
   height="54mm"
   id="svg4137"
   version="1.1"
   viewBox="0 0 333.07086 191.33858">
  <title
     id="title4193">Визитка</title>
  <defs
     id="defs4139">
    <linearGradient
       id="linearGradient4198">
      <stop
         id="stop4200"
         offset="0"
         style="stop-color:#7448ff;stop-opacity:1;" />
      <stop
         style="stop-color:#f81bff;stop-opacity:0.94117647"
         offset="0.079469"
         id="stop4206" />
      <stop
         id="stop4208"
         offset="0.36743271"
         style="stop-color:#756df5;stop-opacity:1" />
      <stop
         id="stop4202"
         offset="1"
         style="stop-color:#6774f6;stop-opacity:1" />
    </linearGradient>
    <linearGradient
       gradientUnits="userSpaceOnUse"
       y2="384.42789"
       x2="1451.7938"
       y1="394.42789"
       x1="206.87001"
       id="linearGradient4277"
       xlink:href="#linearGradient4198" />
    <linearGradient
       gradientUnits="userSpaceOnUse"
       y2="384.42789"
       x2="1451.7938"
       y1="394.42789"
       x1="206.87001"
       id="linearGradient4321"
       xlink:href="#linearGradient4198" />
    <linearGradient
       id="linearGradient4345">
      <stop
         id="stop4347"
         offset="0"
         style="stop-color:#41063d;stop-opacity:1;" />
      <stop
         id="stop4349"
         offset="1"
         style="stop-color:#41063d;stop-opacity:0;" />
    </linearGradient>
    <linearGradient
       id="linearGradient4314">
      <stop
         id="stop4316"
         offset="0"
         style="stop-color:#aa00d4;stop-opacity:1;" />
      <stop
         id="stop4318"
         offset="1"
         style="stop-color:#e9403d;stop-opacity:0" />
    </linearGradient>
    <linearGradient
       gradientTransform="matrix(0.57733107,0,0,0.57733107,87.227793,149.11008)"
       gradientUnits="userSpaceOnUse"
       y2="423.81427"
       x2="248.86485"
       y1="315.51706"
       x1="250.0553"
       id="linearGradient4252"
       xlink:href="#linearGradient4314" />
    <linearGradient
       gradientTransform="matrix(1.5870502,0,0,1.5870502,51.746446,113.66089)"
       gradientUnits="userSpaceOnUse"
       y2="203.70401"
       x2="116.65536"
       y1="127.94257"
       x1="116.0454"
       id="linearGradient4351"
       xlink:href="#linearGradient4345" />
    <linearGradient
       gradientUnits="userSpaceOnUse"
       y2="181.70587"
       x2="371.97696"
       y1="181.70587"
       x1="131.69295"
       id="linearGradient4382"
       xlink:href="#linearGradient4314" />
    <linearGradient
       gradientTransform="matrix(1.0090418,-0.35078797,0.35078797,1.0090418,-232.08177,664.37065)"
       y2="182.12752"
       x2="404.854"
       y1="181.70587"
       x1="131.69295"
       gradientUnits="userSpaceOnUse"
       id="linearGradient4384"
       xlink:href="#linearGradient4314" />
    <linearGradient
       gradientTransform="matrix(1.5870502,0,0,1.5870502,51.746446,113.66089)"
       gradientUnits="userSpaceOnUse"
       y2="203.70401"
       x2="116.65536"
       y1="127.94257"
       x1="116.0454"
       id="linearGradient4351-395"
       xlink:href="#linearGradient4345-190" />
    <linearGradient
       id="linearGradient4345-190">
      <stop
         id="stop4472"
         offset="0"
         style="stop-color:#41062b;stop-opacity:1;" />
      <stop
         id="stop4474"
         offset="1"
         style="stop-color:#41062b;stop-opacity:0;" />
    </linearGradient>
    <linearGradient
       gradientTransform="matrix(0.57733107,0,0,0.57733107,87.227793,149.11008)"
       gradientUnits="userSpaceOnUse"
       y2="423.81427"
       x2="248.86485"
       y1="315.51706"
       x1="250.0553"
       id="linearGradient4252-850"
       xlink:href="#linearGradient4314-212" />
    <linearGradient
       id="linearGradient4314-212">
      <stop
         id="stop4478"
         offset="0"
         style="stop-color:#d400be;stop-opacity:1;" />
      <stop
         id="stop4480"
         offset="1"
         style="stop-color:#e8733d;stop-opacity:0" />
    </linearGradient>
    <linearGradient
       gradientUnits="userSpaceOnUse"
       y2="181.70587"
       x2="371.97696"
       y1="181.70587"
       x1="131.69295"
       id="linearGradient4382-750"
       xlink:href="#linearGradient4314-212" />
    <linearGradient
       gradientTransform="matrix(1.0090418,-0.35078797,0.35078797,1.0090418,-232.08177,664.37065)"
       y2="182.12752"
       x2="404.854"
       y1="181.70587"
       x1="131.69295"
       gradientUnits="userSpaceOnUse"
       id="linearGradient4384-393"
       xlink:href="#linearGradient4314-212" />
  </defs>
  <metadata
     id="metadata4142">
    <rdf:RDF>
      <cc:Work
         rdf:about="">
        <dc:format>image/svg+xml</dc:format>
        <dc:type
           rdf:resource="http://purl.org/dc/dcmitype/StillImage" />
        <dc:title>Визитка</dc:title>
      </cc:Work>
    </rdf:RDF>
  </metadata>
  <g
     id="layer1"
     transform="translate(0,-861.02369)"
     style="display:none">
    <g
       id="g4225"
       transform="translate(3.8768824,10.015978)">
      <g
         transform="translate(0,-3.2503736)"
         id="g4294">
        <g
           id="g4259"
           transform="translate(0,8.1499165)">
          <g
             id="g4239"
             transform="translate(0,-3.2997563)" />
          <g
             id="g4219">
            <text
               id="text4199"
               y="922.60345"
               x="27.889343"
               style="font-style:normal;font-weight:normal;line-height:0%;font-family:sans-serif;letter-spacing:0px;word-spacing:0px;fill:#000000;fill-opacity:1;stroke:none;stroke-width:1px;stroke-linecap:butt;stroke-linejoin:miter;stroke-opacity:1"
               xml:space="preserve"><tspan
                 style="font-style:normal;font-variant:normal;font-weight:300;font-stretch:normal;font-size:12.5px;line-height:1.25;font-family:roboto;-inkscape-font-specification:'roboto Light'"
                 y="922.60345"
                 x="27.889343"
                 id="tspan4201"> </tspan></text>
          </g>
        </g>
        <g
           id="g4319">
          <g
             transform="translate(70.710679,29.168155)"
             id="g4324" />
        </g>
      </g>
    </g>
    <rect
       transform="scale(-1,1)"
       y="861.02368"
       x="-333.07086"
       height="191.33858"
       width="333.07086"
       id="rect4350"
       style="fill:#ffffff;fill-opacity:1;stroke:none;stroke-width:7.087;stroke-linecap:square;stroke-linejoin:miter;stroke-miterlimit:4;stroke-dasharray:none;stroke-dashoffset:0;stroke-opacity:1" />
  </g>
  <g
     id="layer3"
     style="display:none">
    <rect
       style="display:inline;fill:#e6f5fe;fill-opacity:1;stroke:none;stroke-width:7.087;stroke-linecap:square;stroke-linejoin:miter;stroke-miterlimit:4;stroke-dasharray:none;stroke-dashoffset:0;stroke-opacity:1"
       id="rect4145"
       width="318.89764"
       height="177.16536"
       x="-325.98425"
       y="7.0866117"
       transform="scale(-1,1)" />
  </g>
  <g
     id="layer2"
     style="display:inline">
    <g
       style="display:inline"
       transform="matrix(0.17890043,0,0,0.17890043,11.226534,-21.14344)"
       id="layer3-16" />
    <path
       id="path43267"
       style="font-style:normal;font-variant:normal;font-weight:normal;font-stretch:normal;font-size:40px;line-height:108%;font-family:'Open Sans';-inkscape-font-specification:'Open Sans';letter-spacing:2px;word-spacing:0px;fill:#ffffff;fill-opacity:1;stroke:none;stroke-width:0.956901px;stroke-linecap:butt;stroke-linejoin:miter;stroke-opacity:1"
       d="M 110.92773 68.595703 L 110.92773 96.876953 L 115.0625 96.876953 L 115.0625 86.130859 L 117.79883 86.130859 C 121.3797 86.130859 124.19229 85.377066 126.1875 83.804688 L 126.1875 83.802734 C 128.19403 82.218634 129.21094 79.910345 129.21094 77.035156 C 129.21094 74.278671 128.29388 72.107463 126.46484 70.685547 C 124.63581 69.263658 121.96618 68.595703 118.49023 68.595703 L 110.92773 68.595703 z M 137.91211 68.595703 L 137.91211 96.876953 L 154.09961 96.876953 L 154.09961 93.078125 L 142.04492 93.078125 L 142.04492 83.980469 L 153.37109 83.980469 L 153.37109 80.220703 L 142.04492 80.220703 L 142.04492 72.375 L 154.09961 72.375 L 154.09961 68.595703 L 137.91211 68.595703 z M 163.63281 68.595703 L 163.63281 96.876953 L 167.52344 96.876953 L 167.52344 80.867188 C 167.52344 79.068387 167.41237 77.022138 167.28516 74.941406 L 181.57031 96.876953 L 185.93359 96.876953 L 185.93359 68.595703 L 182.00391 68.595703 L 182.00391 84.753906 C 181.97863 85.56907 182.01268 86.871349 182.09961 88.701172 C 182.14558 89.659948 182.15881 89.864715 182.1875 90.412109 L 167.95898 68.595703 L 163.63281 68.595703 z M 115.0625 72.300781 L 118.13477 72.300781 C 120.58277 72.300781 122.32677 72.743462 123.38086 73.53125 C 124.4394 74.322376 124.96289 75.483307 124.96289 77.185547 C 124.96289 79.091606 124.39843 80.358231 123.27539 81.169922 C 122.15428 81.980234 120.20771 82.445312 117.44336 82.445312 L 115.0625 82.445312 L 115.0625 72.300781 z M 177.39453 109.54102 C 174.45446 109.54102 171.86153 110.12235 169.64062 111.29688 C 167.41769 112.46004 165.69621 114.16885 164.50781 116.39062 L 164.50781 116.39258 C 163.33257 118.60099 162.75 121.16972 162.75 124.07422 C 162.75 128.59276 163.93327 132.1824 166.33594 134.75391 L 166.33789 134.75586 C 168.7407 137.31453 172.11838 138.58789 176.34961 138.58789 C 178.33737 138.58789 180.0919 138.47032 181.61914 138.22852 C 183.13823 137.98798 184.63145 137.63235 186.09961 137.16406 L 186.43359 137.05859 L 186.43359 122.94141 L 176.1875 122.94141 L 176.1875 126.74023 L 182.29883 126.74023 L 182.29883 134.27148 C 180.64462 134.64234 178.95699 134.84766 177.22656 134.84766 C 173.82499 134.84766 171.33172 133.93144 169.63086 132.13672 C 167.94293 130.34256 167.07031 127.68393 167.07031 124.07422 C 167.07031 120.64546 167.97203 118.03859 169.74414 116.16016 C 171.5159 114.28209 173.95774 113.33984 177.18945 113.33984 C 179.39632 113.33984 181.82234 113.60334 184.12305 114.87109 L 184.55859 115.05469 L 186.17578 111.37695 L 185.73047 111.18555 C 183.1523 110.0879 180.62338 109.63363 177.39453 109.54102 z M 77.433594 109.93359 L 77.433594 138.21484 L 93.623047 138.21484 L 93.623047 134.37891 L 81.566406 134.37891 L 81.566406 109.93359 L 77.433594 109.93359 z M 132.09961 109.93359 L 132.09961 138.21484 L 135.99219 138.21484 L 135.99219 122.20508 C 135.99219 120.40636 135.87897 118.36005 135.75195 116.2793 L 150.03711 138.21484 L 154.40039 138.21484 L 154.40039 109.93359 L 150.47266 109.93359 L 150.47266 126.09375 C 150.44738 126.90891 150.47947 128.21119 150.56641 130.04102 C 150.61238 131.0002 150.62756 131.20253 150.65625 131.75 L 136.42578 109.93359 L 132.09961 109.93359 z M 193.76953 109.93359 L 193.76953 138.21484 L 209.95703 138.21484 L 209.95703 134.41797 L 197.90234 134.41797 L 197.90234 125.31836 L 209.22852 125.31836 L 209.22852 121.55859 L 197.90234 121.55859 L 197.90234 113.71289 L 209.95703 113.71289 L 209.95703 109.93359 L 193.76953 109.93359 z M 213.93164 109.93359 L 214.16016 110.57422 L 224.06836 138.21484 L 227.87891 138.21484 L 238.07422 109.93359 L 233.63477 109.93359 L 227.28125 127.81836 C 227.28125 127.81836 227.28125 127.82031 227.28125 127.82031 C 226.76992 129.23988 226.35014 130.66522 225.97461 132.0918 C 225.61437 130.72808 225.20869 129.34893 224.70508 127.93359 L 218.3125 109.93359 L 213.93164 109.93359 z M 243.70312 109.93359 L 243.70312 110.41211 L 243.70312 138.21484 L 247.83789 138.21484 L 247.83789 109.93359 L 243.70312 109.93359 z M 253.78711 109.93359 L 253.78711 113.71289 L 262.44141 113.71289 L 262.44141 138.21484 L 266.57617 138.21484 L 266.57617 113.71289 L 275.22852 113.71289 L 275.22852 109.93359 L 253.78711 109.93359 z M 276.19922 109.93359 L 276.57812 110.63867 L 285.62305 127.41016 L 285.62305 138.21484 L 289.79492 138.21484 L 289.79492 127.26172 L 299.24219 109.93359 L 294.71094 109.93359 L 287.71094 123.05469 L 280.76562 109.93359 L 276.19922 109.93359 z "
       transform="scale(0.93749998)" />
    <path
       id="rect924"
       style="fill:#ff4f19;fill-opacity:1;stroke:none;stroke-width:1.85656;stroke-linecap:round;stroke-linejoin:round"
       d="m 189.34119,58.663033 h 83.64855 c 4.09654,0 7.39448,3.297937 7.39448,7.394478 v 21.398543 c 0,4.096541 -3.29794,7.394479 -7.39448,7.394479 h -83.64855 c -4.09654,0 -7.39447,-3.297938 -7.39447,-7.394479 V 66.057511 c 0,-4.096541 3.29793,-7.394478 7.39447,-7.394478 z" />
    <g
       aria-label="genes"
       id="text928"
       style="font-style:normal;font-weight:normal;font-size:27.4398px;line-height:1.25;font-family:sans-serif;fill:#ffffff;fill-opacity:1;stroke:none;stroke-width:0.685994">
      <path
         d="m 205.03142,82.740679 q 0,3.805129 -1.72838,5.587108 -1.72839,1.781979 -5.31914,1.781979 -1.19246,0 -2.33132,-0.174178 -1.12546,-0.16078 -2.22412,-0.468942 v -2.572481 h 0.13398 q 0.61633,0.24117 1.95616,0.589527 1.33984,0.361755 2.67967,0.361755 1.28624,0 2.13034,-0.308162 0.84409,-0.308162 1.31303,-0.857494 0.46894,-0.522535 0.66992,-1.259444 0.20097,-0.736909 0.20097,-1.647996 v -1.36663 q -1.13885,0.911087 -2.18392,1.36663 -1.03168,0.442146 -2.63948,0.442146 -2.67967,0 -4.26067,-1.929361 -1.56761,-1.94276 -1.56761,-5.466523 0,-1.929361 0.53594,-3.322788 0.54933,-1.406826 1.48721,-2.4251 0.8709,-0.951282 2.11694,-1.473817 1.24605,-0.535934 2.47869,-0.535934 1.29964,0 2.17054,0.267967 0.88429,0.254568 1.86236,0.790502 l 0.16078,-0.64312 h 2.35811 z m -2.51889,-2.411701 v -8.159589 q -1.00487,-0.455544 -1.87576,-0.64312 -0.8575,-0.200975 -1.71499,-0.200975 -2.07674,0 -3.2692,1.393427 -1.19245,1.393427 -1.19245,4.046299 0,2.518887 0.88429,3.818526 0.88429,1.299639 2.93424,1.299639 1.09866,0 2.19733,-0.415348 1.11206,-0.428747 2.03654,-1.138859 z"
         style="fill:#ffffff;stroke-width:0.685994"
         id="path889" />
      <path
         d="m 222.51626,77.220563 h -11.02684 q 0,1.380029 0.41535,2.411701 0.41535,1.018274 1.13886,1.674793 0.69671,0.64312 1.64799,0.96468 0.96469,0.32156 2.11694,0.32156 1.52741,0 3.06822,-0.602925 1.55421,-0.616323 2.21073,-1.20585 h 0.13398 v 2.746659 q -1.27284,0.535934 -2.59928,0.897689 -1.32643,0.361755 -2.78685,0.361755 -3.72474,0 -5.81488,-2.009751 -2.09014,-2.023149 -2.09014,-5.734489 0,-3.671145 1.99635,-5.828278 2.00975,-2.157133 5.27895,-2.157133 3.02802,0 4.66262,1.768581 1.648,1.768581 1.648,5.024377 z m -2.4519,-1.929361 q -0.0134,-1.982954 -1.00488,-3.06822 -0.97808,-1.085265 -2.98783,-1.085265 -2.02315,0 -3.229,1.192452 -1.19245,1.192452 -1.35323,2.961033 z"
         style="fill:#ffffff;stroke-width:0.685994"
         id="path891" />
      <path
         d="m 238.84883,84.442268 h -2.51889 v -8.521344 q 0,-1.031672 -0.12058,-1.929361 -0.12059,-0.911087 -0.44215,-1.420224 -0.33496,-0.56273 -0.96468,-0.830697 -0.62972,-0.281365 -1.6346,-0.281365 -1.03167,0 -2.15713,0.509137 -1.12546,0.509137 -2.15713,1.299639 v 11.174215 h -2.51889 V 69.476323 h 2.51889 v 1.661394 q 1.17905,-0.978079 2.4385,-1.527411 1.25944,-0.549332 2.58588,-0.549332 2.42509,0 3.69794,1.460419 1.27284,1.460419 1.27284,4.207079 z"
         style="fill:#ffffff;stroke-width:0.685994"
         id="path893" />
      <path
         d="m 256.22648,77.220563 h -11.02684 q 0,1.380029 0.41535,2.411701 0.41535,1.018274 1.13886,1.674793 0.69672,0.64312 1.648,0.96468 0.96468,0.32156 2.11693,0.32156 1.52742,0 3.06822,-0.602925 1.55421,-0.616323 2.21073,-1.20585 h 0.13398 v 2.746659 q -1.27284,0.535934 -2.59927,0.897689 -1.32644,0.361755 -2.78686,0.361755 -3.72474,0 -5.81488,-2.009751 -2.09014,-2.023149 -2.09014,-5.734489 0,-3.671145 1.99635,-5.828278 2.00975,-2.157133 5.27895,-2.157133 3.02802,0 4.66262,1.768581 1.648,1.768581 1.648,5.024377 z m -2.4519,-1.929361 q -0.0134,-1.982954 -1.00487,-3.06822 -0.97808,-1.085265 -2.98783,-1.085265 -2.02315,0 -3.229,1.192452 -1.19246,1.192452 -1.35324,2.961033 z"
         style="fill:#ffffff;stroke-width:0.685994"
         id="path895" />
      <path
         d="m 270.73688,80.128003 q 0,2.049946 -1.70159,3.362983 -1.68819,1.313038 -4.62242,1.313038 -1.6614,0 -3.05483,-0.388552 -1.38002,-0.401951 -2.31791,-0.870892 v -2.82705 h 0.13399 q 1.19245,0.897689 2.65287,1.433622 1.46042,0.522535 2.80025,0.522535 1.66139,0 2.59928,-0.535933 0.93788,-0.535934 0.93788,-1.688191 0,-0.88429 -0.50914,-1.339834 -0.50913,-0.455543 -1.95615,-0.777104 -0.53594,-0.120585 -1.40683,-0.281365 -0.85749,-0.16078 -1.5676,-0.348357 -1.96956,-0.522535 -2.80026,-1.52741 -0.8173,-1.018274 -0.8173,-2.492092 0,-0.924485 0.37516,-1.741784 0.38855,-0.817299 1.16565,-1.460419 0.75031,-0.629722 1.90257,-0.991477 1.16565,-0.375154 2.59928,-0.375154 1.33983,0 2.70646,0.334959 1.38003,0.32156 2.29112,0.790502 v 2.693066 h -0.13399 q -0.96468,-0.710112 -2.34471,-1.192452 -1.38003,-0.495739 -2.70646,-0.495739 -1.38003,0 -2.33131,0.535934 -0.95128,0.522535 -0.95128,1.567606 0,0.924485 0.57612,1.393427 0.56273,0.468942 1.82218,0.763706 0.69671,0.16078 1.55421,0.32156 0.87089,0.16078 1.44702,0.294763 1.75518,0.40195 2.70646,1.380029 0.95128,0.991477 0.95128,2.626075 z"
         style="fill:#ffffff;stroke-width:0.685994"
         id="path897" />
    </g>
    <path
       style="font-style:normal;font-variant:normal;font-weight:normal;font-stretch:normal;font-size:40px;line-height:108%;font-family:'Open Sans';-inkscape-font-specification:'Open Sans';letter-spacing:2px;word-spacing:0px;display:inline;fill:#ffffff;fill-opacity:1;stroke:none;stroke-width:0.897095px;stroke-linecap:butt;stroke-linejoin:miter;stroke-opacity:1"
       d="m 83.249092,62.194729 c -8.37909,0 -15.208856,6.831135 -15.208856,15.210227 0,1.285026 0.162178,2.532915 0.464387,3.726073 l -8.692342,4.237787 c -1.621217,-1.917207 -4.039496,-3.142327 -6.726413,-3.142327 -4.840594,0 -8.811011,3.973167 -8.811011,8.813757 8e-6,4.84058 3.970417,8.81102 8.811011,8.81101 4.840585,0 8.813746,-3.97043 8.813755,-8.81101 0,-0.55419 -0.05484,-1.09617 -0.154339,-1.62296 l 8.497533,-4.14244 c 2.670913,4.39478 7.504435,7.34034 13.006275,7.34034 1.90582,0 3.73,-0.35685 5.4135,-1.00149 l 5.99726,12.700344 c -3.70814,2.77797 -6.11387,7.20551 -6.11387,12.17902 0,8.37909 6.82908,15.20886 15.208168,15.20886 8.37909,0 15.21023,-6.82977 15.21023,-15.20886 0,-8.37908 -6.83114,-15.21022 -15.21023,-15.21022 -1.80343,0 -3.53396,0.31836 -5.141178,0.89859 l -6.03498,-12.780604 c 3.57421,-2.78714 5.88132,-7.128819 5.88133,-11.99587 0,-8.379092 -6.83114,-15.210227 -15.21023,-15.210227 z m 0,3.537437 c 6.46749,0 11.67279,5.2053 11.67279,11.67279 0,6.467485 -5.2053,11.67279 -11.67279,11.67279 -6.46748,0 -11.670733,-5.205305 -11.670733,-11.67279 0,-6.46749 5.203253,-11.67279 11.670733,-11.67279 z m 20.505058,39.088104 c 6.46749,0 11.67279,5.20531 11.67279,11.67279 0,6.46749 -5.2053,11.67142 -11.67279,11.67142 -6.467478,0 -11.672788,-5.20393 -11.672788,-11.67142 0,-6.46748 5.20531,-11.67279 11.672788,-11.67279 z"
       id="path4170" />
  </g>
</svg>
