<?xml version="1.0" encoding="UTF-8" standalone="no"?>
<svg
   xmlns:dc="http://purl.org/dc/elements/1.1/"
   xmlns:cc="http://creativecommons.org/ns#"
   xmlns:rdf="http://www.w3.org/1999/02/22-rdf-syntax-ns#"
   xmlns:svg="http://www.w3.org/2000/svg"
   xmlns="http://www.w3.org/2000/svg"
   xmlns:xlink="http://www.w3.org/1999/xlink"
   xmlns:sodipodi="http://sodipodi.sourceforge.net/DTD/sodipodi-0.dtd"
   xmlns:inkscape="http://www.inkscape.org/namespaces/inkscape"
   width="94mm"
   height="54mm"
   id="svg4137"
   version="1.1"
   inkscape:version="1.0.1 (c497b03c, 2020-09-10)"
   viewBox="0 0 333.07086 191.33858"
   sodipodi:docname="logo.svg"
   inkscape:export-filename="/Users/admin/Desktop/logo.png"
   inkscape:export-xdpi="270.21277"
   inkscape:export-ydpi="270.21277">
  <title
     id="title4193">Визитка</title>
  <defs
     id="defs4139">
    <linearGradient
       id="linearGradient4198"
       inkscape:collect="always">
      <stop
         id="stop4200"
         offset="0"
         style="stop-color:#7448ff;stop-opacity:1;" />
      <stop
         style="stop-color:#f81bff;stop-opacity:0.94117647"
         offset="0.079469"
         id="stop4206" />
      <stop
         id="stop4208"
         offset="0.36743271"
         style="stop-color:#756df5;stop-opacity:1" />
      <stop
         id="stop4202"
         offset="1"
         style="stop-color:#6774f6;stop-opacity:1" />
    </linearGradient>
    <linearGradient
       gradientUnits="userSpaceOnUse"
       y2="384.42789"
       x2="1451.7938"
       y1="394.42789"
       x1="206.87001"
       id="linearGradient4277"
       xlink:href="#linearGradient4198"
       inkscape:collect="always" />
    <linearGradient
       gradientUnits="userSpaceOnUse"
       y2="384.42789"
       x2="1451.7938"
       y1="394.42789"
       x1="206.87001"
       id="linearGradient4321"
       xlink:href="#linearGradient4198"
       inkscape:collect="always" />
    <linearGradient
       id="linearGradient4345"
       inkscape:collect="always">
      <stop
         id="stop4347"
         offset="0"
         style="stop-color:#41063d;stop-opacity:1;" />
      <stop
         id="stop4349"
         offset="1"
         style="stop-color:#41063d;stop-opacity:0;" />
    </linearGradient>
    <linearGradient
       id="linearGradient4314"
       inkscape:collect="always">
      <stop
         id="stop4316"
         offset="0"
         style="stop-color:#aa00d4;stop-opacity:1;" />
      <stop
         id="stop4318"
         offset="1"
         style="stop-color:#e9403d;stop-opacity:0" />
    </linearGradient>
    <linearGradient
       gradientTransform="matrix(0.57733107,0,0,0.57733107,87.227793,149.11008)"
       gradientUnits="userSpaceOnUse"
       y2="423.81427"
       x2="248.86485"
       y1="315.51706"
       x1="250.0553"
       id="linearGradient4252"
       xlink:href="#linearGradient4314"
       inkscape:collect="always" />
    <linearGradient
       gradientTransform="matrix(1.5870502,0,0,1.5870502,51.746446,113.66089)"
       gradientUnits="userSpaceOnUse"
       y2="203.70401"
       x2="116.65536"
       y1="127.94257"
       x1="116.0454"
       id="linearGradient4351"
       xlink:href="#linearGradient4345"
       inkscape:collect="always" />
    <linearGradient
       gradientUnits="userSpaceOnUse"
       y2="181.70587"
       x2="371.97696"
       y1="181.70587"
       x1="131.69295"
       id="linearGradient4382"
       xlink:href="#linearGradient4314"
       inkscape:collect="always" />
    <linearGradient
       gradientTransform="matrix(1.0090418,-0.35078797,0.35078797,1.0090418,-232.08177,664.37065)"
       y2="182.12752"
       x2="404.854"
       y1="181.70587"
       x1="131.69295"
       gradientUnits="userSpaceOnUse"
       id="linearGradient4384"
       xlink:href="#linearGradient4314"
       inkscape:collect="always" />
    <linearGradient
       gradientTransform="matrix(1.5870502,0,0,1.5870502,51.746446,113.66089)"
       gradientUnits="userSpaceOnUse"
       y2="203.70401"
       x2="116.65536"
       y1="127.94257"
       x1="116.0454"
       id="linearGradient4351-395"
       xlink:href="#linearGradient4345-190"
       inkscape:collect="always" />
    <linearGradient
       id="linearGradient4345-190"
       inkscape:collect="always">
      <stop
         id="stop4472"
         offset="0"
         style="stop-color:#41062b;stop-opacity:1;" />
      <stop
         id="stop4474"
         offset="1"
         style="stop-color:#41062b;stop-opacity:0;" />
    </linearGradient>
    <linearGradient
       gradientTransform="matrix(0.57733107,0,0,0.57733107,87.227793,149.11008)"
       gradientUnits="userSpaceOnUse"
       y2="423.81427"
       x2="248.86485"
       y1="315.51706"
       x1="250.0553"
       id="linearGradient4252-850"
       xlink:href="#linearGradient4314-212"
       inkscape:collect="always" />
    <linearGradient
       id="linearGradient4314-212"
       inkscape:collect="always">
      <stop
         id="stop4478"
         offset="0"
         style="stop-color:#d400be;stop-opacity:1;" />
      <stop
         id="stop4480"
         offset="1"
         style="stop-color:#e8733d;stop-opacity:0" />
    </linearGradient>
    <linearGradient
       gradientUnits="userSpaceOnUse"
       y2="181.70587"
       x2="371.97696"
       y1="181.70587"
       x1="131.69295"
       id="linearGradient4382-750"
       xlink:href="#linearGradient4314-212"
       inkscape:collect="always" />
    <linearGradient
       gradientTransform="matrix(1.0090418,-0.35078797,0.35078797,1.0090418,-232.08177,664.37065)"
       y2="182.12752"
       x2="404.854"
       y1="181.70587"
       x1="131.69295"
       gradientUnits="userSpaceOnUse"
       id="linearGradient4384-393"
       xlink:href="#linearGradient4314-212"
       inkscape:collect="always" />
  </defs>
  <sodipodi:namedview
     id="base"
     pagecolor="#ffffff"
     bordercolor="#666666"
     borderopacity="1.0"
     inkscape:pageopacity="0.0"
     inkscape:pageshadow="2"
     inkscape:zoom="3.6448303"
     inkscape:cx="171.69726"
     inkscape:cy="103.51107"
     inkscape:document-units="px"
     inkscape:current-layer="layer2"
     showgrid="false"
     units="px"
     showguides="true"
     inkscape:guide-bbox="true"
     inkscape:window-width="1920"
     inkscape:window-height="972"
     inkscape:window-x="4"
     inkscape:window-y="23"
     inkscape:window-maximized="0"
     objecttolerance="1"
     gridtolerance="1"
     inkscape:showpageshadow="false"
     borderlayer="true"
     inkscape:document-rotation="0"
     guidetolerance="1">
    <inkscape:grid
       type="xygrid"
       id="grid4186"
       empspacing="20"
       units="mm"
       dotted="true" />
    <sodipodi:guide
       position="20,174.2463"
       orientation="1,0"
       id="guide4252" />
    <sodipodi:guide
       position="313.35847,120"
       orientation="1,0"
       id="guide4254" />
  </sodipodi:namedview>
  <metadata
     id="metadata4142">
    <rdf:RDF>
      <cc:Work
         rdf:about="">
        <dc:format>image/svg+xml</dc:format>
        <dc:type
           rdf:resource="http://purl.org/dc/dcmitype/StillImage" />
        <dc:title>Визитка</dc:title>
      </cc:Work>
    </rdf:RDF>
  </metadata>
  <g
     inkscape:label="холст"
     inkscape:groupmode="layer"
     id="layer1"
     transform="translate(0,-861.02369)"
     style="display:none"
     sodipodi:insensitive="true">
    <g
       id="g4225"
       transform="translate(3.8768824,10.015978)">
      <g
         transform="translate(0,-3.2503736)"
         id="g4294">
        <g
           id="g4259"
           transform="translate(0,8.1499165)">
          <g
             id="g4239"
             transform="translate(0,-3.2997563)" />
          <g
             id="g4219">
            <text
               id="text4199"
               y="922.60345"
               x="27.889343"
               style="font-style:normal;font-weight:normal;line-height:0%;font-family:sans-serif;letter-spacing:0px;word-spacing:0px;fill:#000000;fill-opacity:1;stroke:none;stroke-width:1px;stroke-linecap:butt;stroke-linejoin:miter;stroke-opacity:1"
               xml:space="preserve"><tspan
                 style="font-style:normal;font-variant:normal;font-weight:300;font-stretch:normal;font-size:12.5px;line-height:1.25;font-family:roboto;-inkscape-font-specification:'roboto Light'"
                 y="922.60345"
                 x="27.889343"
                 id="tspan4201"
                 sodipodi:role="line"> </tspan></text>
          </g>
        </g>
        <g
           id="g4319">
          <g
             transform="translate(70.710679,29.168155)"
             id="g4324" />
        </g>
      </g>
    </g>
    <rect
       transform="scale(-1,1)"
       y="861.02368"
       x="-333.07086"
       height="191.33858"
       width="333.07086"
       id="rect4350"
       style="fill:#ffffff;fill-opacity:1;stroke:none;stroke-width:7.087;stroke-linecap:square;stroke-linejoin:miter;stroke-miterlimit:4;stroke-dasharray:none;stroke-dashoffset:0;stroke-opacity:1" />
  </g>
  <g
     inkscape:groupmode="layer"
     id="layer3"
     inkscape:label="поля"
     style="display:none"
     sodipodi:insensitive="true">
    <rect
       style="display:inline;fill:#e6f5fe;fill-opacity:1;stroke:none;stroke-width:7.087;stroke-linecap:square;stroke-linejoin:miter;stroke-miterlimit:4;stroke-dasharray:none;stroke-dashoffset:0;stroke-opacity:1"
       id="rect4145"
       width="318.89764"
       height="177.16536"
       x="-325.98425"
       y="7.0866117"
       transform="scale(-1,1)" />
  </g>
  <g
     inkscape:groupmode="layer"
     id="layer2"
     inkscape:label="logo"
     style="display:inline">
    <g
       style="display:inline"
       transform="matrix(0.17890043,0,0,0.17890043,11.226534,-21.14344)"
       inkscape:label="3"
       id="layer3-16" />
    <path
       sodipodi:nodetypes="ccccsccssscccccccccccccccccscccccccccccssscsccccccscccsscccccccscsssscccsccccccccccsccccccccccccccccccccccccccccccccccccccccccccccccccccccccccccccc"
       inkscape:connector-curvature="0"
       id="path43267"
       d="m 103.99492,64.308145 v 26.513971 h 3.8763 v -10.07521 h 2.56476 c 3.35707,0 5.99458,-0.706526 7.86509,-2.180631 v -7.03e-4 c 1.88112,-1.485094 2.83365,-3.64885 2.83365,-6.344339 0,-2.584205 -0.85896,-4.619617 -2.57368,-5.952663 -1.71472,-1.333021 -4.21814,-1.960425 -7.47684,-1.960425 z m 25.29694,0 v 26.513971 h 15.17661 v -3.56076 h -11.30101 v -8.529082 h 10.6178 v -3.525776 h -10.6178 V 67.85107 h 11.30101 v -3.542925 z m 24.11431,0 v 26.513971 h 3.64787 v -15.00924 c 0,-1.686375 -0.10573,-3.605498 -0.22499,-5.556184 l 13.39246,20.565424 h 4.091 V 64.308145 h -3.68354 v 15.149177 c -0.0237,0.764216 0.007,1.985234 0.0885,3.700693 0.0431,0.898853 0.0568,1.08988 0.0837,1.603062 L 157.46149,64.308145 Z m -45.53495,3.472958 h 2.8803 c 2.295,0 3.93004,0.416587 4.91825,1.155138 0.99238,0.741681 1.48371,1.829092 1.48371,3.424942 0,1.78693 -0.53032,2.975402 -1.58317,3.736362 -1.05104,0.759668 -2.87544,1.194237 -5.46702,1.194237 h -2.23207 z m 58.43652,34.914107 c -2.75632,0 -5.1869,0.54447 -7.269,1.64559 -2.084,1.09047 -3.69918,2.69335 -4.8133,4.77626 v 7.1e-4 c -1.10179,2.07039 -1.64765,4.4788 -1.64765,7.20177 0,4.23613 1.11002,7.60201 3.36252,10.0128 l 7.1e-4,7e-4 v 7e-4 c 2.25263,2.39875 5.41905,3.593 9.38583,3.593 1.86353,0 3.5091,-0.11148 4.94089,-0.33817 1.42415,-0.2255 2.82504,-0.55835 4.20144,-0.99737 l 0.3121,-0.0995 v -13.23401 h -9.60534 v 3.56076 h 5.72905 v 7.06115 c -1.55082,0.34768 -3.13272,0.53916 -4.755,0.53916 -3.18897,0 -5.52627,-0.85821 -7.12083,-2.54076 -1.58243,-1.68202 -2.40014,-4.17436 -2.40014,-7.55846 0,-3.21446 0.84511,-5.65751 2.50646,-7.41854 1.66102,-1.76069 3.9498,-2.6457 6.97953,-2.6457 2.06894,0 4.34382,0.24785 6.50073,1.43637 l 0.40746,0.17286 1.51731,-3.44895 -0.41774,-0.17834 c -2.41703,-1.02904 -4.78796,-1.45519 -7.81501,-1.54202 -1e-5,0 -2e-5,-1e-5 -2e-5,-1e-5 z m -93.714176,0.36767 v 26.51329 h 15.177298 v -3.59506 h -11.30169 v -22.91823 z m 51.250476,0 v 26.51329 h 3.64788 v -15.00856 c 0,-1.6863 -0.10523,-3.60547 -0.22431,-5.55618 l 13.39178,20.56474 h 4.091 v -26.51329 h -3.68286 v 15.14918 c -0.0237,0.76421 0.007,1.98523 0.0885,3.70069 0.0431,0.89924 0.0568,1.0905 0.0837,1.60375 L 127.8994,103.06288 Z m 57.81469,0 v 26.51329 h 15.17662 v -3.56008 h -11.30101 v -8.52977 h 10.6178 v -3.52509 h -10.6178 v -7.35542 h 11.30101 v -3.54293 z m 37.37403,0 -5.95678,16.76664 c -1.7e-4,3.5e-4 -3.5e-4,0.001 -7e-4,0.002 v 7e-4 c -0.47937,1.33084 -0.87167,2.66647 -1.22373,4.00389 -0.33772,-1.27848 -0.71798,-2.57206 -1.19012,-3.89894 l -5.99314,-16.87365 h -4.10814 l 0.2147,0.59952 9.28843,25.91308 h 3.57379 l 9.55801,-26.51328 z m 9.43928,0 v 0.44861 26.06468 h 3.87561 v -26.51329 z m 9.45411,0 v 3.54293 h 8.11272 v 22.97036 h 3.8756 v -22.97036 h 8.11204 v -3.54293 z m 21.00992,0 0.3567,0.66125 8.47901,15.72264 v 10.1294 h 3.91128 v -10.26865 l 8.85697,-16.24464 h -4.24808 l -6.56316,12.30043 -6.51171,-12.30043 z"
       style="font-style:normal;font-variant:normal;font-weight:normal;font-stretch:normal;font-size:40px;line-height:108%;font-family:'Open Sans';-inkscape-font-specification:'Open Sans';letter-spacing:2px;word-spacing:0px;fill:#ffffff;fill-opacity:1;stroke:none;stroke-width:0.897095px;stroke-linecap:butt;stroke-linejoin:miter;stroke-opacity:1" />
    <rect
       style="fill:#ff4f19;fill-opacity:1;stroke:none;stroke-width:1.85656;stroke-linecap:round;stroke-linejoin:round"
       id="rect924"
       width="98.4375"
       height="36.1875"
       x="181.94672"
       y="58.663033"
       ry="7.3944783" />
    <text
       xml:space="preserve"
       style="font-style:normal;font-weight:normal;font-size:27.4398px;line-height:1.25;font-family:sans-serif;fill:#ffffff;fill-opacity:1;stroke:none;stroke-width:0.685994"
       x="190.41383"
       y="84.442268"
       id="text928"><tspan
         sodipodi:role="line"
         id="tspan926"
         x="190.41383"
         y="84.442268"
         style="fill:#ffffff;stroke-width:0.685994">genes</tspan></text>
    <path
       sodipodi:nodetypes="ssccssssccsccssssccssssssssssss"
       inkscape:connector-curvature="0"
       style="font-style:normal;font-variant:normal;font-weight:normal;font-stretch:normal;font-size:40px;line-height:108%;font-family:'Open Sans';-inkscape-font-specification:'Open Sans';letter-spacing:2px;word-spacing:0px;display:inline;fill:#ffffff;fill-opacity:1;stroke:none;stroke-width:0.897095px;stroke-linecap:butt;stroke-linejoin:miter;stroke-opacity:1"
       d="m 83.249092,62.194729 c -8.37909,0 -15.208856,6.831135 -15.208856,15.210227 0,1.285026 0.162178,2.532915 0.464387,3.726073 l -8.692342,4.237787 c -1.621217,-1.917207 -4.039496,-3.142327 -6.726413,-3.142327 -4.840594,0 -8.811011,3.973167 -8.811011,8.813757 8e-6,4.84058 3.970417,8.81102 8.811011,8.81101 4.840585,0 8.813746,-3.97043 8.813755,-8.81101 0,-0.55419 -0.05484,-1.09617 -0.154339,-1.62296 l 8.497533,-4.14244 c 2.670913,4.39478 7.504435,7.34034 13.006275,7.34034 1.90582,0 3.73,-0.35685 5.4135,-1.00149 l 5.99726,12.700344 c -3.70814,2.77797 -6.11387,7.20551 -6.11387,12.17902 0,8.37909 6.82908,15.20886 15.208168,15.20886 8.37909,0 15.21023,-6.82977 15.21023,-15.20886 0,-8.37908 -6.83114,-15.21022 -15.21023,-15.21022 -1.80343,0 -3.53396,0.31836 -5.141178,0.89859 l -6.03498,-12.780604 c 3.57421,-2.78714 5.88132,-7.128819 5.88133,-11.99587 0,-8.379092 -6.83114,-15.210227 -15.21023,-15.210227 z m 0,3.537437 c 6.46749,0 11.67279,5.2053 11.67279,11.67279 0,6.467485 -5.2053,11.67279 -11.67279,11.67279 -6.46748,0 -11.670733,-5.205305 -11.670733,-11.67279 0,-6.46749 5.203253,-11.67279 11.670733,-11.67279 z m 20.505058,39.088104 c 6.46749,0 11.67279,5.20531 11.67279,11.67279 0,6.46749 -5.2053,11.67142 -11.67279,11.67142 -6.467478,0 -11.672788,-5.20393 -11.672788,-11.67142 0,-6.46748 5.20531,-11.67279 11.672788,-11.67279 z"
       id="path4170" />
  </g>
</svg>
