<svg width="24" height="24" viewBox="0 0 24 24" fill="none" xmlns="http://www.w3.org/2000/svg">
<path d="M9.27148 8.16017C8.40789 10.6121 7.10914 13.7161 6.84375 16.6133C6.70929 18.0812 6.53843 19.7267 7.2832 21.0156C7.72069 21.7728 8.52981 22.5574 9.43164 22.5957C10.3768 22.6359 11.021 22.1263 11.4707 21.3281C12.0867 20.2349 11.9843 18.9482 11.7656 17.6563C10.3875 17.4412 9.30273 15.1635 9.30273 13.293C9.30273 11.9864 9.83219 11.2685 10.6211 10.9336C10.6076 10.8636 10.5935 10.7917 10.5801 10.7227C9.87254 10.1106 9.37297 9.10249 9.27148 8.16018L9.27148 8.16017ZM14.6816 8.16017C14.5802 9.10248 14.0806 10.1106 13.373 10.7227C13.3596 10.7917 13.3455 10.8636 13.332 10.9336C14.1209 11.2685 14.6504 11.9864 14.6504 13.293C14.6504 15.1635 13.5657 17.4412 12.1875 17.6562C11.9688 18.9482 11.8664 20.2349 12.4824 21.3281C12.9322 22.1263 13.5763 22.6359 14.5215 22.5957C15.4233 22.5573 16.2324 21.7728 16.6699 21.0156C17.4147 19.7267 17.2438 18.0812 17.1094 16.6133C16.844 13.7161 15.5452 10.6121 14.6816 8.16016L14.6816 8.16017Z" stroke="#838689"/>
<path d="M10.7715 10.875C9.90009 11.1808 9.30274 11.9049 9.30273 13.293C9.30273 15.2581 10.4995 17.6719 11.9766 17.6719C13.4536 17.6719 14.6504 15.2581 14.6504 13.293C14.6504 11.9049 14.053 11.1808 13.1816 10.875C12.8183 11.1384 12.4093 11.2969 11.9766 11.2969C11.5438 11.2969 11.1349 11.1384 10.7715 10.875V10.875Z" stroke="#838689" stroke-linecap="round" stroke-linejoin="round"/>
<path d="M14.7014 7.81413C14.7014 9.37735 13.4815 11.2978 11.9766 11.2978C10.4718 11.2978 9.25186 9.37735 9.25186 7.81413C9.25186 6.25092 10.4718 5.74573 11.9766 5.74573C13.4815 5.74573 14.7014 6.25092 14.7014 7.81413V7.81413Z" stroke="#838689" stroke-linecap="round" stroke-linejoin="round"/>
<path d="M15.042 4.65707C15.042 5.43868 13.6696 5.41912 11.9766 5.41911C10.2837 5.41912 8.91127 5.43853 8.91127 4.65707C8.91127 3.87546 10.2837 2.91525 11.9766 2.91525C13.6696 2.91525 15.042 3.87546 15.042 4.65707V4.65707Z" stroke="#838689" stroke-linecap="round" stroke-linejoin="round"/>
<path d="M9.95761 5.41914C10.9516 4.7108 11.0289 4.13101 11.2065 3.02414" stroke="#838689"/>
<path d="M13.9956 5.41914C13.0017 4.7108 12.9244 4.13101 12.7468 3.02414" stroke="#838689"/>
<path d="M9.90788 1.26764C10.9263 1.70116 11.0055 2.056 11.1875 2.73342" stroke="#838689" stroke-linecap="round" stroke-linejoin="round"/>
<path d="M14.0454 1.26764C13.0269 1.70116 12.9477 2.056 12.7658 2.73342" stroke="#838689" stroke-linecap="round" stroke-linejoin="round"/>
<path d="M1.61871 12.5061H4.81656L7.69041 10.4888" stroke="#838689" stroke-linecap="round" stroke-linejoin="round"/>
<path d="M22.3345 12.5061H19.1367L16.2628 10.4888" stroke="#838689" stroke-linecap="round" stroke-linejoin="round"/>
<path d="M8.68709 7.44243L6.98412 5.1563L4.71349 4.06766" stroke="#838689" stroke-linecap="round" stroke-linejoin="round"/>
<path d="M6.16576 17.2131L4.15878 20.0613" stroke="#838689" stroke-linecap="round" stroke-linejoin="round"/>
<path d="M15.2661 7.44243L16.9691 5.1563L19.2397 4.06766" stroke="#838689" stroke-linecap="round" stroke-linejoin="round"/>
<path d="M17.7875 17.2131L19.7944 20.0613" stroke="#838689" stroke-linecap="round" stroke-linejoin="round"/>
<path d="M15.042 4.65707C15.042 5.43868 13.6696 5.41912 11.9766 5.41911C10.2837 5.41912 8.91127 5.43853 8.91127 4.65707C8.91127 3.87546 10.2837 2.91525 11.9766 2.91525C13.6696 2.91525 15.042 3.87546 15.042 4.65707V4.65707Z" stroke="#838689" stroke-linecap="round" stroke-linejoin="round"/>
<path d="M9.95761 5.41914C10.9516 4.7108 11.0289 4.13101 11.2065 3.02414" stroke="#838689"/>
<path d="M13.9956 5.41914C13.0017 4.7108 12.9244 4.13101 12.7468 3.02414" stroke="#838689"/>
<path d="M9.90788 1.26764C10.9263 1.70116 11.0055 2.056 11.1875 2.73342" stroke="#838689" stroke-linecap="round" stroke-linejoin="round"/>
<path d="M14.0454 1.26764C13.0269 1.70116 12.9477 2.056 12.7658 2.73342" stroke="#838689" stroke-linecap="round" stroke-linejoin="round"/>
</svg>
