<svg width="24" height="56" viewBox="0 0 24 56" fill="none" xmlns="http://www.w3.org/2000/svg">
<path d="M11.9999 0.501862C11.183 0.501941 10.3996 0.808446 9.82202 1.35397C9.24441 1.89949 8.91987 2.63935 8.91978 3.41083C8.92023 3.43078 8.92089 3.45072 8.92177 3.47066C8.86784 3.80114 8.8441 4.04975 8.8441 4.04975C8.8441 4.04975 8.38402 3.87287 8.46978 4.69833C8.55554 5.5238 9.37769 5.82756 9.37769 5.82756C9.41435 6.67171 10.0195 7.09231 10.5663 7.69223L10.3871 9.43143C10.3871 9.43143 7.16424 10.0284 6.45885 10.4313C5.75347 10.8343 5.81658 10.9207 5.60868 11.2517C4.95109 12.5766 4.53168 14.0165 4.06962 15.454L3.07609 21.3549L0.501694 28.5183L0.792421 30.1301L2.1921 30.1569C1.7286 29.3185 2.46597 27.8753 2.81132 27.2595L2.80338 27.219L4.73467 22.0863L6.07663 16.3591L7.17169 14.8631L8.32052 20.349L7.60972 24.1189C7.60972 24.1189 6.49947 26.5408 6.32949 28.0181C6.15952 29.4954 6.75756 32.8265 6.75756 32.8265L8.17928 40.235V46.3444L8.74672 50.2436L8.03592 53.4943L6.86321 54.5752L6.68602 55.4979L9.95927 55.272C10.6138 53.2664 11.1256 51.8272 10.4529 49.7244L10.879 43.4856L11.305 38.9359L10.7993 30.0584C10.7914 28.6281 13.1818 28.6323 13.2005 30.0584L12.6948 38.9359L13.1208 43.4856L13.5469 49.7244C12.8742 51.8272 13.3861 53.2664 14.0407 55.272L17.3139 55.4979L17.1368 54.5752L15.964 53.4943L15.2532 50.2436L15.8207 46.3444V40.235L17.2423 32.8265C17.2423 32.8265 17.8403 29.4954 17.6703 28.0181C17.5003 26.541 16.3901 24.1191 16.3901 24.1191L15.6793 20.3492L16.8281 14.8633L17.9232 16.3593L19.2652 22.0865L21.1965 27.2192L21.1885 27.2597C21.5339 27.8755 22.2712 29.3188 21.8077 30.1571L23.2074 30.1303L23.4981 28.5185L20.9237 21.3551L19.9302 15.4542C19.4682 14.0167 19.0487 12.5768 18.3912 11.2519C18.1833 10.921 18.2464 10.8345 17.541 10.4315C16.8356 10.0286 13.6127 9.43165 13.6127 9.43165L13.4335 7.69245C13.9802 7.09252 14.5854 6.67192 14.6221 5.82778C14.6221 5.82778 15.4443 5.52401 15.5301 4.69855C15.6158 3.87306 15.1557 4.04996 15.1557 4.04996C15.1557 4.04996 15.1368 3.80974 15.0781 3.48053C15.079 3.45737 15.0797 3.4342 15.0801 3.41102C15.08 2.63954 14.7554 1.89968 14.1778 1.35416C13.6002 0.808637 12.8168 0.502133 11.9999 0.502054L11.9999 0.501862ZM21.1885 27.2597C21.1817 27.2476 21.173 27.2306 21.1666 27.2192L20.8779 28.8927L21.1885 27.2597ZM2.81131 27.2597L3.12191 28.8928L2.8332 27.2192C2.82677 27.2305 2.81808 27.2475 2.81127 27.2597L2.81131 27.2597Z" stroke="#838689" stroke-width="1.00374" stroke-linecap="round" stroke-linejoin="round"/>
</svg>
