<svg width="24" height="24" viewBox="0 0 24 24" fill="none" xmlns="http://www.w3.org/2000/svg">
<path d="M5.35497 6.00001C4.56292 6.53279 3.93763 7.34918 3.74848 8.25153C2.90682 12.1521 6.51758 13.8894 9.13979 12.1918C9.91304 11.6607 10.7421 10.6469 11.1877 9.96139C11.1877 9.96139 11.7057 9.1658 12 8.66532C12.3956 7.99269 12.853 7.23492 13.2597 6.56896C13.5847 6.03687 13.9038 5.40769 14.3307 4.9533C15.0512 4.06221 15.8859 3.80847 16.6491 4.1136C17.51 4.45781 18.0779 5.37843 17.8904 6.60275C17.5797 8.33979 16.9889 9.73933 16.5441 11.2592C16.0772 12.8547 15.6102 14.985 15.712 16.5217C15.8275 18.2644 16.4802 19.9524 18.0274 21.2219C18.601 21.7235 20.1055 22.1745 20.1055 22.1745L20.2302 22.0711C20.0098 21.5907 19.7271 21.0483 19.4345 20.594C18.8672 19.7134 18.2624 18.9376 18 18C17.7625 17.06 17.8219 15.4534 17.9178 14.4885C18.1034 12.2811 19.3587 9.90496 19.8498 8.3001C20.6457 5.89524 20.0305 3.96127 19.1805 2.92724C18.3306 1.89321 16.9775 1.77394 16.9775 1.77394C15.3349 1.60128 14.1278 2.05308 13.0011 3.1034C11.9782 4.07253 11.5572 5.22579 10.8136 6.42281C10.2581 7.3172 9.03054 9.14286 9.03054 9.14286C8.39455 10.1344 7.35176 10.9158 6.35616 10.6674C5.68926 10.501 5.29826 9.8279 5.25455 8.92424C5.26833 8.38591 5.45233 6.7424 5.45233 6.7424L5.50101 6.00001C5.50101 6.00001 5.39967 5.98073 5.35497 6.00001H5.35497Z" stroke="#838689" stroke-width="0.999999" stroke-linecap="round" stroke-linejoin="round"/>
</svg>
